<svg width="500" height="250" xmlns="http://www.w3.org/2000/svg">

 <g>
  <title>Layer 1</title>
  <g>
   <rect x="-250" y="-557" fill="#FFFFFF" height="1000" width="1000" class="st0"/>
   <g>
    <g>
     <g>
      <path fill="#4E5A7D" d="m170.9,380.6c1.2,0 2.4,-0.7 2.4,-2.3c0,-1.3 -0.8,-2.2 -2.3,-2.2c-1.6,0 -2.5,1.1 -2.4,2.1l0,0.1c0.1,1.4 1.1,2.3 2.3,2.3z" class="st1"/>
     </g>
     <g>
      <path fill="#4E5A7D" d="m226.4,384.9c-0.1,-0.8 1.2,-0.9 1,-1.6c-0.1,-0.9 -0.9,-0.9 -1.4,-0.8c-2.9,0.3 -3.5,1.3 -3.8,3.2c-0.1,1.1 0.6,2.1 1.3,2.9c0.1,1 -0.2,2.7 -0.5,4.4c-0.3,0.1 -0.5,0.3 -0.5,0.6c-0.3,1 -0.9,3.9 -1.8,6.3c-0.3,0.4 -0.7,0.9 -0.7,1.2c0,0.1 0,0.3 0,0.3c-0.7,1.2 -1.4,2.1 -2.2,2.1c-0.4,0 -0.5,-1 -0.5,-2.4c0,-2.4 1.2,-9.1 1.2,-10.5c0,-1.9 0.3,-3.5 0.3,-5.1c0,-0.6 -0.5,-0.8 -1,-0.8c-0.5,0 -0.7,0.3 -1.2,0.3c-1.9,0 -2.2,1 -2.2,2.6c0,0.6 0,9.9 -0.1,11c-0.1,1.9 -1.2,4.3 -3.3,4.3c-1.9,0 -2.8,-2.6 -2.8,-5.4c0,-2.5 0.5,-5.7 0.8,-6.8c0.2,-0.6 1,-3.6 1,-4c0,-0.7 -0.1,-0.9 -0.9,-0.9c-3,0.1 -3.6,0.3 -4.1,1.9c-0.5,1.9 -1,5 -1,8c0,0.3 0,0.6 0,0.8c-0.7,2.2 -1.5,4.7 -3.5,4.8c-1.4,0.1 -1.8,-3.4 -1.8,-6.9c0,-7.1 2,-13.9 2.3,-21c0.1,-0.6 -0.4,-1.1 -1.2,-1.1c-1,0.1 -1.4,0.1 -1.8,0.1c-0.8,0 -1.1,0.3 -1.2,1.1c-0.7,7.1 -2.1,15.7 -2.1,22.6c0,0.1 0,0.1 0,0.1c-0.7,2.3 -1.5,5.2 -3.7,5.3c-1.4,0.1 -1.8,-3.4 -1.8,-6.9c0,-7.1 2,-13.9 2.3,-21c0.1,-0.6 -0.4,-1.1 -1.2,-1.1c-1,0 -1.4,-0.1 -1.9,-0.1c-0.8,0 -1.1,0.3 -1.2,1.1c-0.7,7.1 -2.1,15.7 -2.1,22.6c0,0.1 0,0.1 0,0.1c-0.7,2.3 -1.5,5.2 -3.7,5.3c-1.4,0.1 -1.8,-3.4 -1.8,-6.9c0,-7.1 2,-13.9 2.3,-21c0.1,-0.6 -0.4,-1.1 -1.2,-1.1c-1.1,0 -1.4,-0.1 -2,-0.1c-0.8,0 -1.1,0.3 -1.2,1.1c-0.7,7.1 -2.1,15.7 -2.1,22.6c0,0.3 0,0.6 0,1c-0.7,2.3 -1.6,4.7 -2.9,4.7c-0.6,-0.1 -1,-0.9 -1,-2.9c0,-3.6 0.3,-8.5 0.7,-12.2c0.1,-0.5 -0.1,-0.9 -0.7,-0.9c-0.5,-0.1 -1.9,-0.2 -2.4,-0.2c-0.8,0 -1.1,0.5 -1.1,1.3l0,1.3c0.1,4.3 -0.4,7.8 -0.4,11.9c0,2.9 1.6,4.9 3.5,4.9c2.1,0 3.7,-1.7 4.8,-3.8c0.6,2.2 1.7,4.1 3.9,4.1c2.1,0 4.1,-2.3 5.5,-4.8c0.5,2.5 1.6,4.8 4.1,4.8c2.1,0 4.1,-2.3 5.5,-4.8c0.5,2.5 1.6,4.8 4.1,4.8c2,0 4.1,-2.2 5.4,-4.6c0.7,2.9 2.4,5.1 5.4,5.1c2.6,0 3.3,-1 4.9,-3.4c0.5,1.3 0.7,3.8 2.2,3.8c2.1,0 3.9,-2.4 5,-5.1c1.2,2.1 4.3,3.6 6.5,3.6c3.5,0 6.5,-2.5 6.3,-6.4c0,-4.9 -7.7,-10.5 -8.3,-13.4zm0.9,17.4c-1,0 -2.7,-0.6 -2.7,-2c-0.1,-0.8 1.8,-1.2 2.4,-1.6c0.5,-0.3 0.7,-0.6 0.7,-0.8c-0.1,-0.5 -0.7,-0.8 -1.4,-0.8c-0.6,0 -1.4,0.2 -2.4,0.8c0.2,-0.9 1.6,-5.6 1.9,-7.8c2.6,1.9 4.9,6.2 5.2,9.3c0.1,2.6 -2.8,2.9 -3.7,2.9z" class="st1"/>
     </g>
     <g>
      <path fill="#4E5A7D" d="m286,380.6c1.2,0 2.4,-0.7 2.4,-2.3c0,-1.3 -0.8,-2.2 -2.3,-2.2c-1.6,0 -2.5,1.1 -2.4,2.1l0,0.1c0,1.4 1.1,2.3 2.3,2.3z" class="st1"/>
     </g>
     <g>
      <path fill="#4E5A7D" d="m323.8,406.1c-1.2,-0.8 -2,-2 -1.8,-7.1c0.1,-3.2 0.8,-7.7 0.8,-10.9c0,-1.4 -0.7,-3 -2.5,-3c-2.3,0 -5.6,4.7 -6.7,6.7c0.1,-1.2 0.5,-4.9 0.6,-6.1c0.1,-1.2 0.1,-1.3 -2.1,-1.3c-1.4,0 -1.6,0.3 -1.6,0.8c0,3 -0.3,6.4 -0.5,9.9c-0.8,1.7 -1.8,3.4 -3.3,3.4c-0.5,0 -0.9,-0.1 -1.3,-0.3c0.7,-1 1.1,-3.2 1.1,-4.3c0,-1.8 -1.3,-3.2 -3.1,-3.2c-2.4,0 -3.9,1.7 -3.9,4c0,1.8 1.9,3.9 3.3,4.9c-0.9,1.7 -2.6,2.7 -4.5,2.7c-2.8,0 -3.8,-5.1 -3.8,-7c0,-3.6 1.3,-7.7 5.6,-7.7c2.9,0 2.9,1.9 4.2,1.9c0.1,0 0.5,-0.2 0.5,-0.4c0,-2.1 -3.4,-3.9 -5.2,-3.9c-6,0 -10.2,4.7 -10.2,10.6c0,1.2 0.2,2.4 0.6,3.6c-0.6,1.5 -1.3,2.7 -2.2,2.7c-0.6,0 -1,-0.8 -1,-2.8c0,-3.6 0.3,-8.5 0.7,-12.2c0.1,-0.5 -0.1,-0.9 -0.7,-0.9c-0.5,-0.1 -1.9,-0.2 -2.4,-0.2c-0.8,0 -1.1,0.5 -1.1,1.3l0,1.3c0,2.3 -0.1,4.2 -0.2,6.2c-0.1,0.1 -0.1,0.2 -0.2,0.3c-0.7,1.9 -1.6,7.3 -3.8,7.3c-0.7,0 -2,-0.9 -2,-3.4c0,-4.1 1.4,-12.2 1.6,-13.7c2.1,-0.5 3.9,-0.3 6.4,-1c1.1,-0.3 0.5,-1.6 -0.8,-1.5c-0.7,0.1 -2.7,0.2 -5.4,0c0.1,-2.1 0.6,-3.5 0.6,-5.7l0,-0.2c0,-0.6 -0.3,-1 -0.9,-1c-1.2,0 -3,0.4 -3,2c0,1.7 -0.3,3.2 -0.3,4.9c-1.2,0.1 -2.2,-0.3 -3.4,-0.3c-0.9,0 -1,1.6 -1,2.1c0,0.6 0.1,1.1 0.5,1.1c1.6,0 3.1,-0.3 3.7,-0.3c-0.3,4.3 -0.9,6.7 -1.2,9.7c0,0.2 -0.1,0.5 -0.1,0.7c-0.7,2.3 -2.1,5.8 -3.2,5.8c-0.5,0 -1.1,-0.7 -1.1,-1.2c0,-3.2 0.3,-7.1 1.2,-10.3c0.2,-0.6 0.7,-1.8 0.7,-2.5c0,-0.8 -1.4,-1.3 -2.1,-1.3c-1.2,0 -1.1,0.6 -1.6,1.7c-0.9,-0.6 -1,-1.8 -3.3,-1.8c-4.2,0 -6.7,6.7 -6.7,11c0,0.7 -0.1,1.1 -0.1,1.5c0,2.4 -1.4,5.4 -2.8,5.4c-1.2,0 -1.6,-3.4 -1.6,-4.8c0,-2 0.9,-6.5 1.7,-8.4c0.3,-0.7 0.9,-1.5 0.9,-2.3c0,-0.9 -1,-2.4 -2.1,-2.4c-1.2,0 -1.9,0.6 -3.1,0.6c-2,0 -3.3,-1.2 -4.4,-1.2c-0.7,0 -1.1,0.5 -1.1,1.1c0,1.7 1.9,1.4 1.4,3.6c-0.5,2.1 -1.8,7.7 -2.6,9.9c-0.1,0.1 -0.1,0.2 -0.1,0.3c0,0.3 0.1,0.5 0.1,0.6c-0.5,0.8 -1,1.3 -1.6,1.3c-0.7,0 -2,-0.9 -2,-3.4c0,-4.1 1.4,-12.2 1.6,-13.7c2.1,-0.5 3.9,-0.3 6.4,-1c1.1,-0.3 0.5,-1.6 -0.8,-1.5c-0.7,0.1 -2.7,0.2 -5.4,0c0.1,-2.1 0.6,-3.5 0.6,-5.7c0,-0.6 -0.3,-1 -0.9,-1c-1.2,0 -3,0.4 -3,2c0,1.7 -0.3,3.2 -0.3,4.9c-1.2,0.1 -2.2,-0.3 -3.4,-0.3c-0.9,0 -1,1.6 -1,2.1c0,0.6 0.1,1.1 0.5,1.1c1.6,0 3.1,-0.3 3.7,-0.3c-0.3,4.3 -0.9,6.7 -1.2,9.7c-0.2,1.6 -0.5,4 -0.5,5.6c0,2.8 2.4,5.1 4.4,5.1c3.6,0 6.5,-7.3 6.5,-10.2c0,-0.1 0,-0.3 0,-0.4c0.4,-1.7 0.7,-3.5 1,-5c0.1,-0.2 0.3,-0.8 0.8,-0.8c1.2,0 1.3,0.8 1.3,1.8c0,2.4 -0.9,6.7 -0.9,9.2c0,2.5 0.7,5.5 3.5,5.5c2.4,0 4.4,-1.6 5.5,-3.6c0.8,1.9 2.1,3.4 3.9,3.4c1.8,0 3.3,-1.3 4.3,-2.5c0.3,0.6 0.7,2.4 2.6,2.4c1.8,0 3.1,-1.5 4.2,-3.4c0.6,2.2 2.6,3.8 4.3,3.8c2,0 3.9,-2.4 5.1,-5c0.1,2.7 1.6,4.5 3.5,4.5c2,0 3.6,-1.6 4.7,-3.5c1.2,2 3.2,3.4 5.8,3.4c3.6,0 5.8,-2.3 7.7,-5.1c0.7,0.1 1.2,0.3 1.8,0.3c1.2,0 2.5,-0.8 3.5,-2c-0.1,2.1 -0.3,4.1 -0.3,5.9c0,0.6 0.1,0.9 0.6,1c0.5,0.2 1.3,0.1 1.8,0.1c0.7,0 0.8,0.1 0.9,-0.8c0.1,-0.6 0.5,-7.5 0.5,-8c0,-1.4 3.5,-7.5 5.2,-7.5c0.3,0 0.6,0.6 0.6,1c0,3.1 -1,8.2 -1,11.4c0,3.4 1.7,4.6 2.4,5c0.5,0.3 2,0.8 2.8,0.7c0.2,-0.8 0.6,-1.2 0.2,-1.5zm-57.5,-6.6c-0.1,0.9 -1.7,3.2 -2.9,3.2c-1.4,0 -2,-3.9 -1.9,-6.5c0.1,-3 1.6,-8.5 3,-8.5c1.9,0 2.2,4.5 2.2,6c0,1.7 -0.2,4.2 -0.4,5.8zm37.6,-2.1c-0.9,-0.5 -1.4,-2.1 -1.4,-3.1c0,-0.6 0.2,-1.9 1,-1.9c0.8,0 1,1.4 1,2c0.1,0.8 -0.4,2.3 -0.6,3z" class="st1"/>
     </g>
     <g>
      <path fill="#4E5A7D" d="m338.8,398.5c-0.3,-5.1 -8.1,-10.7 -8.6,-13.6c-0.1,-0.8 1.2,-0.9 1,-1.6c-0.1,-0.9 -0.9,-0.9 -1.4,-0.8c-2.9,0.3 -3.5,1.3 -3.8,3.2c-0.1,1.1 0.6,2.1 1.3,2.9c0.1,2.3 -1.2,8.6 -2.6,11c-0.3,0.5 -0.8,1.1 -0.9,1.5c-0.1,0.8 0.5,1.2 1,0.6c0.5,-0.4 0.4,-0.6 0.9,-1c1,2.4 4.3,4.1 6.8,4.1c3.6,0 6.5,-2.5 6.3,-6.3zm-7.7,3.8c-1,0 -2.7,-0.6 -2.7,-2c-0.1,-0.8 1.8,-1.2 2.4,-1.6c0.5,-0.3 0.7,-0.6 0.7,-0.8c-0.1,-0.5 -0.7,-0.8 -1.4,-0.8c-0.6,0 -1.4,0.2 -2.4,0.8c0.2,-0.9 1.6,-5.6 1.9,-7.8c2.6,1.9 4.9,6.2 5.2,9.3c0,2.6 -2.8,2.9 -3.7,2.9z" class="st1"/>
     </g>
    </g>
    <g>
     <g>
      <g>
       <g>
        <g>
         <path fill="#4E5A7D" d="m-186.8,402.2c0,2.5 -1.2,3.7 -2.6,3.7c-1.1,0 -1.9,-0.5 -2.1,-1.4c-0.4,0.5 -1,0.8 -1.8,0.8c-1.5,0 -2.6,-1.2 -2.6,-2.8c0,-1.6 1.1,-2.8 2.6,-2.8c0.7,0 1.2,0.3 1.6,0.7l0,-0.5l1.6,0l0,3.9c0,0.8 0.3,1.4 1,1.4c0.9,0 1.7,-0.9 1.7,-3c0,-3 -2.3,-5.3 -5.4,-5.3c-3.1,0 -5.6,2.4 -5.6,5.7c0,3.3 2.5,5.7 5.9,5.7c1.1,0 2.1,-0.2 2.9,-0.4l0,0.6c-0.8,0.3 -1.7,0.4 -2.9,0.4c-3.7,0 -6.5,-2.6 -6.5,-6.2c0,-3.4 2.7,-6.2 6.2,-6.2c3.9,-0.2 6,2.9 6,5.7zm-4.9,0.3c0,-0.8 -0.6,-1.4 -1.3,-1.4c-0.8,0 -1.3,0.5 -1.3,1.4c0,0.8 0.6,1.3 1.3,1.3c0.8,0.1 1.3,-0.5 1.3,-1.3z" class="st1"/>
        </g>
       </g>
       <g>
        <g>
         <path fill="#4E5A7D" d="m-180.6,398.1l0,2c-1.2,-0.1 -2.6,0.5 -2.6,2.4l0,4.3l-1.9,0l0,-8.6l1.9,0l0,1.4c0.5,-1.1 1.5,-1.5 2.6,-1.5z" class="st1"/>
        </g>
       </g>
       <g>
        <g>
         <path fill="#4E5A7D" d="m-175.4,405.3c1,0 1.8,-0.5 2.2,-1.1l1.5,0.9c-0.8,1.2 -2.1,1.9 -3.8,1.9c-2.8,0 -4.7,-1.9 -4.7,-4.5c0,-2.5 1.8,-4.5 4.5,-4.5c2.6,0 4.3,2.1 4.3,4.5c0,0.3 0,0.5 -0.1,0.8l-6.8,0c0.4,1.3 1.5,2 2.9,2zm2.3,-3.5c-0.3,-1.5 -1.3,-2.1 -2.5,-2.1c-1.4,0 -2.3,0.8 -2.6,2.1l5.1,0z" class="st1"/>
        </g>
       </g>
       <g>
        <g>
         <path fill="#4E5A7D" d="m-161.1,398.2l0,8.6l-1.9,0l0,-1.2c-0.7,0.9 -1.7,1.5 -3,1.5c-2.3,0 -4.3,-2 -4.3,-4.5c0,-2.6 1.9,-4.5 4.3,-4.5c1.3,0 2.3,0.5 3,1.4l0,-1.2l1.9,0l0,-0.1zm-1.8,4.3c0,-1.6 -1.2,-2.7 -2.7,-2.7c-1.5,0 -2.7,1.1 -2.7,2.7c0,1.6 1.2,2.7 2.7,2.7c1.5,0.1 2.7,-1.1 2.7,-2.7z" class="st1"/>
        </g>
       </g>
       <g>
        <g>
         <path fill="#4E5A7D" d="m-158.9,394.3l1.9,0l0,12.5l-1.9,0l0,-12.5z" class="st1"/>
        </g>
       </g>
       <g>
        <g>
         <path fill="#4E5A7D" d="m-147.1,398.2l-3.3,8.6l-2.1,0l-3.3,-8.6l2,0l2.4,6.5l2.4,-6.5l1.9,0z" class="st1"/>
        </g>
       </g>
       <g>
        <g>
         <path fill="#4E5A7D" d="m-145.8,398.2l1.9,0l0,8.9c0,2.4 -1.2,3.5 -3.5,3.3l0,-1.8c1.1,0.1 1.7,-0.3 1.7,-1.5l0,-8.9l-0.1,0zm-0.2,-2.4c0,-0.7 0.5,-1.2 1.2,-1.2c0.7,0 1.2,0.5 1.2,1.2c0,0.6 -0.5,1.2 -1.2,1.2c-0.7,0 -1.2,-0.6 -1.2,-1.2z" class="st1"/>
        </g>
       </g>
       <g>
        <g>
         <path fill="#4E5A7D" d="m-134,398.2l-3.3,8.8c-0.8,2.2 -2.2,3.3 -4.2,3.2l0,-1.7c1.2,0.1 1.9,-0.5 2.3,-1.7l0.1,-0.2l-3.6,-8.4l2,0l2.6,6.2l2.2,-6.2l1.9,0z" class="st1"/>
        </g>
       </g>
      </g>
      <g>
       <g>
        <path fill="#4E5A7D" d="m-191.1,381.7c0,2.1 -1.5,3.8 -3.6,3.8l-3,0l0,-7.6l3,0c2.1,0 3.6,1.7 3.6,3.8zm-1,0c0,-1.6 -1.1,-2.9 -2.6,-2.9l-2,0l0,5.7l2,0c1.5,0.1 2.6,-1.2 2.6,-2.8z" class="st1"/>
       </g>
       <g>
        <path fill="#4E5A7D" d="m-183,384.6l0,1l-4.6,0l0,-7.6l4.5,0l0,1l-3.5,0l0,2.3l3.2,0l0,0.9l-3.2,0l0,2.4l3.6,0z" class="st1"/>
       </g>
       <g>
        <path fill="#4E5A7D" d="m-180,383.8l0.9,-0.5c0.3,0.8 0.9,1.4 2,1.4c1.1,0 1.6,-0.5 1.6,-1.2c0,-0.8 -0.7,-1 -1.8,-1.4c-1.2,-0.4 -2.4,-0.8 -2.4,-2.2c0,-1.4 1.1,-2.2 2.4,-2.2c1.3,0 2.2,0.7 2.6,1.7l-0.8,0.5c-0.3,-0.7 -0.8,-1.2 -1.7,-1.2c-0.8,0 -1.4,0.4 -1.4,1.1c0,0.7 0.5,1 1.6,1.3c1.3,0.4 2.6,0.8 2.6,2.3c0,1.3 -1.1,2.2 -2.6,2.2c-1.5,0.1 -2.6,-0.7 -3,-1.8z" class="st1"/>
       </g>
       <g>
        <path fill="#4E5A7D" d="m-170,377.9l0,7.6l-1,0l0,-7.6l1,0z" class="st1"/>
       </g>
       <g>
        <path fill="#4E5A7D" d="m-158.7,382.2c0,1.9 -1.4,3.5 -3.7,3.5c-2.4,0 -4,-1.8 -4,-4c0,-2.2 1.7,-4 4,-4c1.4,0 2.7,0.8 3.3,1.8l-0.9,0.5c-0.4,-0.8 -1.4,-1.4 -2.4,-1.4c-1.8,0 -3,1.3 -3,3c0,1.7 1.2,3 3,3c1.6,0 2.5,-0.9 2.7,-2l-2.8,0l0,-0.9l3.8,0l0,0.5z" class="st1"/>
       </g>
       <g>
        <path fill="#4E5A7D" d="m-149.4,377.9l0,7.6l-0.8,0l-3.9,-5.7l0,5.7l-1,0l0,-7.6l0.8,0l3.9,5.7l0,-5.7l1,0z" class="st1"/>
       </g>
       <g>
        <path fill="#4E5A7D" d="m-140.9,384.6l0,1l-4.6,0l0,-7.6l4.5,0l0,1l-3.5,0l0,2.3l3.2,0l0,0.9l-3.2,0l0,2.4l3.6,0z" class="st1"/>
       </g>
       <g>
        <path fill="#4E5A7D" d="m-130.8,381.7c0,2.1 -1.5,3.8 -3.6,3.8l-3,0l0,-7.6l3,0c2,0 3.6,1.7 3.6,3.8zm-1,0c0,-1.6 -1.1,-2.9 -2.6,-2.9l-2,0l0,5.7l2,0c1.5,0.1 2.6,-1.2 2.6,-2.8z" class="st1"/>
       </g>
       <g>
        <path fill="#4E5A7D" d="m-116.8,383.4c0,1.2 -1,2.2 -2.2,2.2l-3.3,0l0,-7.6l3,0c1.2,0 2.1,0.9 2.1,2.1c0,0.7 -0.3,1.2 -0.8,1.6c0.7,0.2 1.2,0.8 1.2,1.7zm-4.5,-4.6l0,2.3l2,0c0.6,0 1.1,-0.5 1.1,-1.2c0,-0.6 -0.5,-1.2 -1.1,-1.2l-2,0l0,0.1zm3.5,4.5c0,-0.7 -0.5,-1.2 -1.2,-1.2l-2.3,0l0,2.5l2.3,0c0.7,0 1.2,-0.6 1.2,-1.3z" class="st1"/>
       </g>
       <g>
        <path fill="#4E5A7D" d="m-110.6,382.4l0,3.1l-1,0l0,-3.1l-2.7,-4.5l1.1,0l2.1,3.6l2.1,-3.6l1.1,0l-2.7,4.5z" class="st1"/>
       </g>
      </g>
      <g>
       <g>
        <g>
         <g>
          <path fill="#4E5A7D" d="m596.1,381.7c0,2.1 -1.5,3.8 -3.6,3.8l-3,0l0,-7.6l3,0c2.1,0 3.6,1.7 3.6,3.8zm-0.9,0c0,-1.6 -1.1,-2.9 -2.6,-2.9l-2,0l0,5.7l2,0c1.5,0.1 2.6,-1.2 2.6,-2.8z" class="st1"/>
         </g>
        </g>
        <g>
         <g>
          <path fill="#4E5A7D" d="m599.3,381.7c0,-2.2 1.7,-4 3.9,-4c2.2,0 4,1.8 4,4c0,2.2 -1.7,4 -4,4c-2.2,0 -3.9,-1.8 -3.9,-4zm6.8,0c0,-1.7 -1.3,-3 -2.9,-3c-1.7,0 -2.9,1.3 -2.9,3c0,1.7 1.3,3 2.9,3c1.7,0 2.9,-1.3 2.9,-3z" class="st1"/>
         </g>
        </g>
        <g>
         <g>
          <path fill="#4E5A7D" d="m609.8,377.9l1.1,0l1.7,6.3l1.9,-6.3l1,0l1.9,6.3l1.7,-6.3l1.1,0l-2.2,7.6l-1.2,0l-1.8,-6.1l-1.8,6.1l-1.2,0l-2.2,-7.6z" class="st1"/>
         </g>
        </g>
        <g>
         <g>
          <path fill="#4E5A7D" d="m629.3,377.9l0,7.6l-0.8,0l-3.9,-5.7l0,5.7l-1,0l0,-7.6l0.8,0l3.9,5.7l0,-5.7l1,0z" class="st1"/>
         </g>
        </g>
        <g>
         <g>
          <path fill="#4E5A7D" d="m637.5,384.6l0,1l-4.3,0l0,-7.6l1,0l0,6.7l3.3,0l0,-0.1z" class="st1"/>
         </g>
        </g>
        <g>
         <g>
          <path fill="#4E5A7D" d="m639.9,381.7c0,-2.2 1.7,-4 3.9,-4c2.2,0 4,1.8 4,4c0,2.2 -1.7,4 -4,4c-2.2,0 -3.9,-1.8 -3.9,-4zm6.9,0c0,-1.7 -1.3,-3 -2.9,-3c-1.7,0 -2.9,1.3 -2.9,3c0,1.7 1.3,3 2.9,3c1.6,0 2.9,-1.3 2.9,-3z" class="st1"/>
         </g>
        </g>
        <g>
         <g>
          <path fill="#4E5A7D" d="m655.4,383.8l-3.4,0l-0.6,1.7l-1.1,0l2.8,-7.6l1.1,0l2.8,7.6l-1,0l-0.6,-1.7zm-0.3,-0.9l-1.4,-3.8l-1.4,3.8l2.8,0z" class="st1"/>
         </g>
        </g>
        <g>
         <g>
          <path fill="#4E5A7D" d="m666.9,381.7c0,2.1 -1.5,3.8 -3.6,3.8l-3,0l0,-7.6l3,0c2.1,0 3.6,1.7 3.6,3.8zm-1,0c0,-1.6 -1.1,-2.9 -2.6,-2.9l-2,0l0,5.7l2,0c1.6,0.1 2.6,-1.2 2.6,-2.8z" class="st1"/>
         </g>
        </g>
        <g>
         <g>
          <path fill="#4E5A7D" d="m676.5,378.8l0,2.5l3.2,0l0,1l-3.2,0l0,3.2l-1,0l0,-7.6l4.4,0l0,1l-3.4,0l0,-0.1z" class="st1"/>
         </g>
        </g>
        <g>
         <g>
          <path fill="#4E5A7D" d="m686.2,382.6l-1.8,0l0,2.9l-1,0l0,-7.6l3,0c1.3,0 2.4,1.1 2.4,2.4c0,1 -0.7,1.9 -1.6,2.2l1.8,3.1l-1.1,0l-1.7,-3zm-1.8,-0.9l2,0c0.8,0 1.4,-0.6 1.4,-1.4c0,-0.8 -0.6,-1.4 -1.4,-1.4l-2,0l0,2.8z" class="st1"/>
         </g>
        </g>
        <g>
         <g>
          <path fill="#4E5A7D" d="m691.9,381.7c0,-2.2 1.7,-4 3.9,-4c2.2,0 4,1.8 4,4c0,2.2 -1.7,4 -4,4c-2.2,0 -3.9,-1.8 -3.9,-4zm6.9,0c0,-1.7 -1.3,-3 -2.9,-3c-1.7,0 -2.9,1.3 -2.9,3c0,1.7 1.3,3 2.9,3c1.6,0 2.9,-1.3 2.9,-3z" class="st1"/>
         </g>
        </g>
        <g>
         <g>
          <path fill="#4E5A7D" d="m710.4,385.5l-1,0l0,-6l-2.5,4.2l-0.1,0l-2.5,-4.1l0,5.9l-1,0l0,-7.6l1.1,0l2.4,4l2.4,-4l1.1,0l0,7.6l0.1,0z" class="st1"/>
         </g>
        </g>
       </g>
       <g>
        <g>
         <g>
          <path fill="#4E5A7D" d="m589.3,395.9c0,-0.7 0.5,-1.2 1.2,-1.2c0.7,0 1.2,0.5 1.2,1.2c0,0.7 -0.5,1.2 -1.2,1.2c-0.6,0 -1.2,-0.5 -1.2,-1.2zm0.3,2.5l1.9,0l0,8.9l-1.9,0l0,-8.9z" class="st1"/>
         </g>
        </g>
        <g>
         <g>
          <path fill="#4E5A7D" d="m593.7,394.4l1.9,0l0,12.9l-1.9,0l0,-12.9z" class="st1"/>
         </g>
        </g>
        <g>
         <g>
          <path fill="#4E5A7D" d="m597.8,394.4l1.9,0l0,12.9l-1.9,0l0,-12.9z" class="st1"/>
         </g>
        </g>
        <g>
         <g>
          <path fill="#4E5A7D" d="m602,394.4l1.9,0l0,12.9l-1.9,0l0,-12.9z" class="st1"/>
         </g>
        </g>
        <g>
         <g>
          <path fill="#4E5A7D" d="m614,398.4l0,8.9l-1.9,0l0,-1.1c-0.6,0.9 -1.5,1.4 -2.7,1.4c-2,0 -3.4,-1.3 -3.4,-3.6l0,-5.4l1.9,0l0,5.2c0,1.3 0.8,2.1 2,2.1c1.3,0 2.2,-0.7 2.2,-2.5l0,-4.7l1.9,0l0,-0.3z" class="st1"/>
         </g>
        </g>
        <g>
         <g>
          <path fill="#4E5A7D" d="m622.6,404.8c0,1.8 -1.5,2.7 -3.5,2.7c-1.8,0 -3,-0.8 -3.6,-2.1l1.6,-1c0.3,0.8 1,1.3 2,1.3c0.8,0 1.5,-0.3 1.5,-1c0,-1.6 -4.8,-0.7 -4.8,-3.9c0,-1.7 1.4,-2.7 3.2,-2.7c1.5,0 2.7,0.7 3.3,1.8l-1.6,0.9c-0.3,-0.7 -0.9,-1 -1.7,-1c-0.7,0 -1.3,0.3 -1.3,0.9c0.2,1.8 4.9,0.8 4.9,4.1z" class="st1"/>
         </g>
        </g>
        <g>
         <g>
          <path fill="#4E5A7D" d="m626.7,400.3l0,4.2c0,1.1 0.7,1.1 2.2,1l0,1.7c-2.9,0.4 -4.1,-0.5 -4.1,-2.8l0,-4.2l-1.6,0l0,-1.8l1.6,0l0,-1.9l1.9,-0.6l0,2.5l2.2,0l0,1.8l-2.2,0l0,0.1z" class="st1"/>
         </g>
        </g>
        <g>
         <g>
          <path fill="#4E5A7D" d="m635.4,398.3l0,2.1c-1.3,-0.1 -2.7,0.5 -2.7,2.5l0,4.5l-1.9,0l0,-8.9l1.9,0l0,1.5c0.5,-1.3 1.5,-1.7 2.7,-1.7z" class="st1"/>
         </g>
        </g>
        <g>
         <g>
          <path fill="#4E5A7D" d="m645.3,398.4l0,8.9l-1.9,0l0,-1.3c-0.7,0.9 -1.7,1.5 -3.1,1.5c-2.4,0 -4.4,-2 -4.4,-4.7c0,-2.6 2,-4.7 4.4,-4.7c1.4,0 2.4,0.6 3.1,1.5l0,-1.3l1.9,0l0,0.1zm-1.9,4.5c0,-1.6 -1.2,-2.8 -2.8,-2.8c-1.6,0 -2.8,1.2 -2.8,2.8c0,1.6 1.2,2.8 2.8,2.8c1.6,0 2.8,-1.2 2.8,-2.8z" class="st1"/>
         </g>
        </g>
        <g>
         <g>
          <path fill="#4E5A7D" d="m650.3,400.3l0,4.2c0,1.1 0.7,1.1 2.2,1l0,1.7c-2.9,0.4 -4.1,-0.5 -4.1,-2.8l0,-4.2l-1.6,0l0,-1.8l1.6,0l0,-1.9l1.9,-0.6l0,2.5l2.2,0l0,1.8l-2.2,0l0,0.1z" class="st1"/>
         </g>
        </g>
        <g>
         <g>
          <path fill="#4E5A7D" d="m653.9,395.9c0,-0.7 0.5,-1.2 1.2,-1.2c0.7,0 1.2,0.5 1.2,1.2c0,0.7 -0.5,1.2 -1.2,1.2c-0.6,0 -1.2,-0.5 -1.2,-1.2zm0.3,2.5l1.9,0l0,8.9l-1.9,0l0,-8.9z" class="st1"/>
         </g>
        </g>
        <g>
         <g>
          <path fill="#4E5A7D" d="m657.8,402.9c0,-2.6 2.1,-4.7 4.7,-4.7c2.6,0 4.7,2 4.7,4.7c0,2.6 -2.1,4.7 -4.7,4.7c-2.6,-0.1 -4.7,-2.1 -4.7,-4.7zm7.5,0c0,-1.6 -1.2,-2.8 -2.8,-2.8c-1.6,0 -2.8,1.2 -2.8,2.8c0,1.6 1.2,2.8 2.8,2.8c1.6,0 2.8,-1.2 2.8,-2.8z" class="st1"/>
         </g>
        </g>
        <g>
         <g>
          <path fill="#4E5A7D" d="m677,401.9l0,5.4l-1.9,0l0,-5.2c0,-1.3 -0.8,-2.1 -2,-2.1c-1.3,0 -2.2,0.7 -2.2,2.5l0,4.7l-1.9,0l0,-8.9l1.9,0l0,1.1c0.6,-0.9 1.5,-1.4 2.7,-1.4c1.9,0.2 3.4,1.6 3.4,3.9z" class="st1"/>
         </g>
        </g>
        <g>
         <g>
          <path fill="#4E5A7D" d="m685.5,404.8c0,1.8 -1.5,2.7 -3.5,2.7c-1.8,0 -3,-0.8 -3.6,-2.1l1.6,-1c0.3,0.8 1,1.3 2,1.3c0.8,0 1.5,-0.3 1.5,-1c0,-1.6 -4.8,-0.7 -4.8,-3.9c0,-1.7 1.4,-2.7 3.2,-2.7c1.5,0 2.7,0.7 3.3,1.8l-1.6,0.9c-0.3,-0.7 -0.9,-1 -1.7,-1c-0.7,0 -1.3,0.3 -1.3,0.9c0.1,1.8 4.9,0.8 4.9,4.1z" class="st1"/>
         </g>
        </g>
        <g>
         <g>
          <path fill="#4E5A7D" d="m686.8,406.2c0,-0.7 0.6,-1.3 1.3,-1.3c0.7,0 1.3,0.6 1.3,1.3c0,0.7 -0.6,1.3 -1.3,1.3c-0.7,0 -1.3,-0.6 -1.3,-1.3z" class="st1"/>
         </g>
        </g>
        <g>
         <g>
          <path fill="#4E5A7D" d="m690.3,402.9c0,-2.6 2,-4.7 4.7,-4.7c1.7,0 3.2,0.9 3.9,2.3l-1.6,1c-0.4,-0.8 -1.3,-1.4 -2.3,-1.4c-1.6,0 -2.7,1.2 -2.7,2.8c0,1.6 1.2,2.8 2.7,2.8c1.1,0 1.9,-0.5 2.4,-1.4l1.6,0.9c-0.7,1.4 -2.2,2.3 -4,2.3c-2.7,0 -4.7,-2 -4.7,-4.6z" class="st1"/>
         </g>
        </g>
        <g>
         <g>
          <path fill="#4E5A7D" d="m699.7,402.9c0,-2.6 2.1,-4.7 4.7,-4.7c2.6,0 4.7,2 4.7,4.7c0,2.6 -2.1,4.7 -4.7,4.7c-2.6,-0.1 -4.7,-2.1 -4.7,-4.7zm7.5,0c0,-1.6 -1.2,-2.8 -2.8,-2.8s-2.8,1.2 -2.8,2.8c0,1.6 1.2,2.8 2.8,2.8s2.8,-1.2 2.8,-2.8z" class="st1"/>
         </g>
        </g>
       </g>
      </g>
     </g>
     <g>
      <g>
       <path fill="#4E5A7D" d="m-38.9,377.8l0,7.7l-0.8,0l-4,-5.8l0,5.8l-1,0l0,-7.7l0.8,0l4,5.7l0,-5.7l1,0z" class="st1"/>
       <path fill="#4E5A7D" d="m-30.4,384.5l0,1l-4.6,0l0,-7.7l4.5,0l0,1l-3.5,0l0,2.4l3.2,0l0,1l-3.2,0l0,2.4l3.6,0l0,-0.1z" class="st1"/>
       <path fill="#4E5A7D" d="m-27.6,377.8l1.1,0l1.8,6.3l1.9,-6.3l1,0l1.9,6.3l1.8,-6.3l1.1,0l-2.2,7.7l-1.2,0l-1.8,-6.1l-1.8,6.1l-1.2,0l-2.4,-7.7z" class="st1"/>
       <path fill="#4E5A7D" d="m-6.6,377.8l0,7.7l-1,0l0,-6.6l-1.6,0.5l-0.3,-0.9l2,-0.7l0.9,0z" class="st1"/>
       <path fill="#4E5A7D" d="m-3.1,381.7c0,-2.4 1.1,-4 3,-4c1.9,0 3,1.6 3,4s-1.1,4 -3,4c-1.9,0 -3,-1.7 -3,-4zm5,0c0,-1.9 -0.7,-3 -2,-3s-1.9,1.1 -1.9,3s0.7,3 1.9,3s2,-1.1 2,-3z" class="st1"/>
       <path fill="#4E5A7D" d="m11.7,384l-0.9,0l0,1.5l-1,0l0,-1.5l-3.9,0l0,-1l2.8,-5.3l1.1,0l-2.8,5.3l2.8,0l0,-2.2l1,0l0,2.2l0.9,0l0,1z" class="st1"/>
      </g>
      <g>
       <path fill="#4E5A7D" d="m-36,405.1l-1.3,0l0,2.1l-2.5,0l0,-2.1l-5.9,0l0,-2.3l4.1,-8.1l2.6,0l-4.1,8.1l3.2,0l0,-3l2.5,0l0,3l1.3,0l0,2.3l0.1,0z" class="st1"/>
       <path fill="#4E5A7D" d="m-35.1,401c0,-3.8 1.8,-6.5 5,-6.5c3.2,0 5,2.6 5,6.5s-1.8,6.5 -5,6.5c-3.2,0 -5,-2.7 -5,-6.5zm7.5,0c0,-2.6 -0.9,-4.1 -2.5,-4.1s-2.5,1.5 -2.5,4.1s0.9,4.1 2.5,4.1s2.5,-1.5 2.5,-4.1z" class="st1"/>
       <path fill="#4E5A7D" d="m-14.5,405.1l-1.3,0l0,2.1l-2.5,0l0,-2.1l-5.9,0l0,-2.3l4.1,-8.1l2.6,0l-4.1,8.1l3.2,0l0,-3l2.5,0l0,3l1.3,0l0,2.3l0.1,0z" class="st1"/>
       <path fill="#4E5A7D" d="m2.3,401c0,3.5 -2.6,6.2 -6,6.2l-4.9,0l0,-12.4l4.9,0c3.4,0 6,2.7 6,6.2zm-2.4,0c0,-2.3 -1.5,-3.9 -3.6,-3.9l-2.5,0l0,7.8l2.5,0c2.2,0 3.6,-1.6 3.6,-3.9z" class="st1"/>
       <path fill="#4E5A7D" d="m12.2,398.3l0,8.9l-2.3,0l0,-1c-0.5,0.8 -1.5,1.2 -2.6,1.2c-1.9,0 -3.4,-1.3 -3.4,-3.7l0,-5.5l2.3,0l0,5.2c0,1.2 0.7,1.8 1.8,1.8c1.1,0 2,-0.7 2,-2.2l0,-4.8l2.2,0l0,0.1z" class="st1"/>
       <path fill="#4E5A7D" d="m27.5,401.7l0,5.5l-2.3,0l0,-5.3c0,-1 -0.5,-1.7 -1.5,-1.7c-1,0 -1.7,0.7 -1.7,2l0,5l-2.3,0l0,-5.3c0,-1 -0.5,-1.7 -1.5,-1.7c-1,0 -1.7,0.7 -1.7,2l0,5l-2.3,0l0,-8.9l2.3,0l0,0.9c0.5,-0.7 1.3,-1.2 2.5,-1.2c1.1,0 1.9,0.5 2.4,1.3c0.6,-0.8 1.4,-1.3 2.6,-1.3c2.1,0.1 3.5,1.5 3.5,3.7z" class="st1"/>
       <path fill="#4E5A7D" d="m38.9,402.8c0,2.6 -2,4.7 -4.3,4.7c-1.3,0 -2.2,-0.5 -2.9,-1.3l0,1l-2.3,0l0,-12.4l2.3,0l0,4.6c0.6,-0.8 1.6,-1.3 2.9,-1.3c2.4,0 4.3,2 4.3,4.7zm-2.3,0c0,-1.5 -1,-2.5 -2.5,-2.5c-1.4,0 -2.5,1 -2.5,2.5s1,2.5 2.5,2.5c1.5,0 2.5,-1 2.5,-2.5z" class="st1"/>
       <path fill="#4E5A7D" d="m50.1,402.8c0,2.6 -2,4.7 -4.3,4.7c-1.3,0 -2.2,-0.5 -2.9,-1.3l0,1l-2.3,0l0,-12.4l2.3,0l0,4.6c0.6,-0.8 1.6,-1.3 2.9,-1.3c2.3,0 4.3,2 4.3,4.7zm-2.3,0c0,-1.5 -1,-2.5 -2.5,-2.5c-1.4,0 -2.5,1 -2.5,2.5s1,2.5 2.5,2.5c1.4,0 2.5,-1 2.5,-2.5z" class="st1"/>
       <path fill="#4E5A7D" d="m56.1,405.4c0.9,0 1.6,-0.4 2,-0.9l1.8,1.1c-0.8,1.2 -2.2,1.9 -3.9,1.9c-3,0 -4.9,-2 -4.9,-4.7s1.9,-4.7 4.7,-4.7c2.6,0 4.5,2.1 4.5,4.7c0,0.3 0,0.6 -0.1,0.9l-6.7,0c0.4,1.2 1.4,1.7 2.6,1.7zm2,-3.5c-0.3,-1.3 -1.2,-1.8 -2.2,-1.8c-1.2,0 -2.1,0.7 -2.3,1.8l4.5,0z" class="st1"/>
       <path fill="#4E5A7D" d="m62,394.2l2.3,0l0,13l-2.3,0l0,-13z" class="st1"/>
       <path fill="#4E5A7D" d="m66.4,394.2l2.3,0l0,13l-2.3,0l0,-13z" class="st1"/>
      </g>
     </g>
    </g>
   </g>
   <path fill="#FFF4B0" d="m114.7,203.3c-122.9,-0.1 -207.3,-182.2 -210.3,-191.2c-9.7,-28.9 -40.1,-118.8 5.4,-207.3c56.2,-109.1 197,-155.8 288.6,-124.5c62.3,21.2 53.6,62 133.5,100.5c97.6,46.9 153.4,6.8 202.2,50.9c51.1,46.1 50.8,145.2 24.2,210.9c-36.3,89.6 -76.2,143.2 -165.1,160.8c-74.6,0.1 -176.7,0 -278.5,-0.1z" class="st2" id="svg_53"/>
   <line stroke-miterlimit="10" stroke-linejoin="round" stroke-linecap="round" stroke-width="6" stroke="#4E5A7D" fill="none" y2="203.5" x2="467.8" y1="203.5" x1="-12.1" class="st3" id="svg_52"/>
   <line stroke-miterlimit="10" stroke-linejoin="round" stroke-linecap="round" stroke-width="6" stroke="#4E5A7D" fill="none" y2="203.5" x2="544.3" y1="203.5" x1="494.9" class="st3" id="svg_51"/>
   <line stroke-miterlimit="10" stroke-linejoin="round" stroke-linecap="round" stroke-width="6" stroke="#4E5A7D" fill="none" y2="203.5" x2="-32" y1="203.5" x1="-66.6" class="st3" id="svg_50"/>
   <line stroke-miterlimit="10" stroke-linejoin="round" stroke-linecap="round" stroke-width="6" stroke="#4E5A7D" fill="none" y2="203.5" x2="570.2" y1="203.5" x1="561.7" class="st3" id="svg_49"/>
   <g opacity="0.2" class="st4" id="svg_41">
    <polyline stroke-miterlimit="10" stroke-linejoin="round" stroke-linecap="round" stroke-width="6" stroke="#592D2D" fill="none" points="205.10000610351562,-55.100006103515625 205.10000610351562,-24.20001220703125 143.29998779296875,-24.20001220703125 " class="st5" id="svg_48"/>
    <polyline stroke-miterlimit="10" stroke-linejoin="round" stroke-linecap="round" stroke-width="6" stroke="#592D2D" fill="none" points="267,-24.20001220703125 205.10000610351562,-24.20001220703125 205.10000610351562,-55.100006103515625 " class="st5" id="svg_47"/>
    <rect stroke-miterlimit="10" stroke-linejoin="round" stroke-linecap="round" stroke-width="6" stroke="#592D2D" fill="none" height="30.9" width="61.9" class="st5" y="-24.2" x="174.2" id="svg_46"/>
    <polyline stroke-miterlimit="10" stroke-linejoin="round" stroke-linecap="round" stroke-width="6" stroke="#592D2D" fill="none" points="222.70001220703125,37.5999755859375 205.10000610351562,37.5999755859375 205.10000610351562,6.70001220703125 267,6.70001220703125 " class="st5" id="svg_45"/>
    <polyline stroke-miterlimit="10" stroke-linejoin="round" stroke-linecap="round" stroke-width="6" stroke="#592D2D" fill="none" points="143.29998779296875,6.70001220703125 205.10000610351562,6.70001220703125 205.10000610351562,37.5999755859375 155,37.5999755859375 " class="st5" id="svg_44"/>
    <polyline stroke-miterlimit="10" stroke-linejoin="round" stroke-linecap="round" stroke-width="6" stroke="#592D2D" fill="none" points="122.20001220703125,-24.20001220703125 174.20001220703125,-24.20001220703125 174.20001220703125,6.70001220703125 143.29998779296875,6.70001220703125 " class="st5" id="svg_43"/>
    <polyline stroke-miterlimit="10" stroke-linejoin="round" stroke-linecap="round" stroke-width="6" stroke="#592D2D" fill="none" points="280.70001220703125,6.70001220703125 236,6.70001220703125 236,-24.20001220703125 257.5,-24.20001220703125 " class="st5" id="svg_42"/>
   </g>
   <ellipse stroke-miterlimit="10" stroke-linejoin="round" stroke-linecap="round" stroke-width="6" stroke="#4E5A7D" fill="none" ry="44.3" rx="24" cy="118.9" cx="79.9" class="st3" id="svg_40"/>
   <path fill="#FFFFFF" d="m49.1,129.1l-13.7,0c-6.1,0 -11,-4.9 -11,-11l0,-3.5c0,-6.1 4.9,-11 11,-11l13.7,0l0,25.5z" class="st0" id="svg_39"/>
   <path stroke-miterlimit="10" stroke-linejoin="round" stroke-linecap="round" stroke-width="6" stroke="#4E5A7D" fill="none" d="m49.1,129.1l-13.7,0c-6.1,0 -11,-4.9 -11,-11l0,-3.5c0,-6.1 4.9,-11 11,-11l13.7,0l0,25.5z" class="st3" id="svg_38"/>
   <path fill="#D16F6F" d="m72.7,77.4l-19.1,0c-9.3,0 -16.8,17.4 -16.8,39c0,21.5 7.5,39 16.8,39c0.3,0 0.7,0 1,-0.1l18.1,0l0,-77.9z" class="st6" id="svg_37"/>
   <path stroke-miterlimit="10" stroke-linejoin="round" stroke-linecap="round" stroke-width="6" stroke="#4E5A7D" fill="none" d="m72.7,77.4l-19.1,0c-9.3,0 -16.8,17.4 -16.8,39c0,21.5 7.5,39 16.8,39c0.3,0 0.7,0 1,-0.1l18.1,0l0,-77.9z" class="st3" id="svg_36"/>
   <path fill="#E08484" d="m154.2,29.3l-53.6,0c-26,0 -47.1,39 -47.1,87.1c0,48.1 21.1,87.1 47.1,87.1c0.9,0 1.9,-0.1 2.8,-0.2l50.8,0l0,-174z" class="st7" id="svg_35"/>
   <path fill="#E08484" d="m154.2,29.3l-53.6,0c-26,0 -47.1,39 -47.1,87.1c0,48.1 21.1,87.1 47.1,87.1c0.9,0 1.9,-0.1 2.8,-0.2l50.8,0l0,-174z" class="st7" id="svg_34"/>
   <path fill="#E08484" d="m154.2,29.3l-53.6,0c-26,0 -47.1,39 -47.1,87.1c0,48.1 21.1,87.1 47.1,87.1c0.9,0 1.9,-0.1 2.8,-0.2l50.8,0l0,-174z" class="st7" id="svg_33"/>
   <path fill="#D87171" d="m70.9,183.9c8.1,12.2 18.5,19.5 29.7,19.5c0.9,0 1.9,-0.1 2.8,-0.2l50.8,0l0,-19.3l-83.3,0z" class="st8" id="svg_32"/>
   <path fill="#E99697" d="m70.4,49.5l83.8,0l0,-20.3l-53.6,0c-11.5,0.1 -22.1,7.7 -30.2,20.3z" class="st9" id="svg_31"/>
   <path stroke-miterlimit="10" stroke-linejoin="round" stroke-linecap="round" stroke-width="6" stroke="#4E5A7D" fill="none" d="m154.2,29.3l-53.6,0c-26,0 -47.1,39 -47.1,87.1c0,48.1 21.1,87.1 47.1,87.1c0.9,0 1.9,-0.1 2.8,-0.2l50.8,0l0,-174z" class="st3" id="svg_30"/>
   <ellipse fill="#D87171" ry="87.1" rx="47.1" cy="116.4" cx="155.6" class="st8" id="svg_29"/>
   <ellipse stroke-miterlimit="10" stroke-linejoin="round" stroke-linecap="round" stroke-width="6" stroke="#4E5A7D" fill="none" ry="87.1" rx="47.1" cy="116.4" cx="155.6" class="st3" id="svg_28"/>
   <ellipse fill="#4E5A7D" ry="20.4" rx="9.2" cy="116.4" cx="155.6" class="st1" id="svg_27"/>
   <ellipse fill="#C46565" ry="70.4" rx="33.1" cy="116.4" cx="155.6" class="st10" id="svg_26"/>
   <ellipse fill="#D16F6F" ry="33.1" rx="17.2" cy="116.4" cx="155.6" class="st6" id="svg_25"/>
   <ellipse stroke-miterlimit="10" stroke-linejoin="round" stroke-linecap="round" stroke-width="4" stroke="#4E5A7D" fill="none" ry="33.1" rx="17.2" cy="116.4" cx="155.6" class="st11" id="svg_24"/>
   <ellipse stroke-miterlimit="10" stroke-linejoin="round" stroke-linecap="round" stroke-width="6" stroke="#4E5A7D" fill="none" ry="20.4" rx="9.2" cy="116.4" cx="155.6" class="st3" id="svg_23"/>
   <ellipse fill="#4E5A7D" ry="20.4" rx="9.2" cy="116.4" cx="155.6" class="st1" id="svg_22"/>
   <ellipse stroke-miterlimit="10" stroke-linejoin="round" stroke-linecap="round" stroke-width="4" stroke="#4E5A7D" fill="none" ry="70.4" rx="33.1" cy="116.4" cx="155.6" class="st11" id="svg_21"/>
   <path fill="#FFFFFF" d="m154.1,103.7c-1.3,3.4 -2.2,7.8 -2.2,12.6c0,4.9 0.9,9.2 2.2,12.6c0.6,0.1 1.2,0.2 1.8,0.2l174,0l0,-25.6l-174,0c-0.7,0.1 -1.2,0.1 -1.8,0.2z" class="st0" id="svg_20"/>
   <path stroke-miterlimit="10" stroke-linejoin="round" stroke-linecap="round" stroke-width="6" stroke="#4E5A7D" fill="none" d="m154.1,103.7c-1.3,3.4 -2.2,7.8 -2.2,12.6c0,4.9 0.9,9.2 2.2,12.6c0.6,0.1 1.2,0.2 1.8,0.2l174,0l0,-25.6l-174,0c-0.7,0.1 -1.2,0.1 -1.8,0.2z" class="st3" id="svg_19"/>
   <path fill="#E08484" d="m401,29.3l-53.6,0c-26,0 -47.1,39 -47.1,87.1c0,48.1 21.1,87.1 47.1,87.1c0.9,0 1.9,-0.1 2.8,-0.2l50.8,0l0,-174z" class="st7" id="svg_18"/>
   <path fill="#D87171" d="m319.2,183.9c8.1,12.2 18.5,19.5 29.7,19.5c0.9,0 1.9,-0.1 2.8,-0.2l50.8,0l0,-19.3l-83.3,0z" class="st8" id="svg_17"/>
   <path fill="#E99697" d="m318.6,49.5l83.8,0l0,-20.3l-53.6,0c-11.4,0.1 -22,7.7 -30.2,20.3z" class="st9" id="svg_16"/>
   <path stroke-miterlimit="10" stroke-linejoin="round" stroke-linecap="round" stroke-width="6" stroke="#4E5A7D" fill="none" d="m401,29.3l-53.6,0c-26,0 -47.1,39 -47.1,87.1c0,48.1 21.1,87.1 47.1,87.1c0.9,0 1.9,-0.1 2.8,-0.2l50.8,0l0,-174z" class="st3" id="svg_15"/>
   <ellipse fill="#E08484" ry="87.1" rx="47.1" cy="116.4" cx="402.5" class="st7" id="svg_14"/>
   <ellipse fill="#D87171" ry="87.1" rx="47.1" cy="116.4" cx="402.5" class="st8" id="svg_13"/>
   <ellipse stroke-miterlimit="10" stroke-linejoin="round" stroke-linecap="round" stroke-width="6" stroke="#4E5A7D" fill="none" ry="87.1" rx="47.1" cy="116.4" cx="402.5" class="st3" id="svg_12"/>
   <ellipse fill="#4E5A7D" ry="20.4" rx="9.2" cy="116.4" cx="402.5" class="st1" id="svg_11"/>
   <ellipse fill="#C46565" ry="73.1" rx="33.1" cy="116.4" cx="402.5" class="st10" id="svg_10"/>
   <ellipse stroke-miterlimit="10" stroke-linejoin="round" stroke-linecap="round" stroke-width="4" stroke="#4E5A7D" fill="none" ry="73.1" rx="33.1" cy="116.4" cx="402.5" class="st11" id="svg_9"/>
   <path fill="#E08484" d="m434.6,82.6l-22,0c-10.7,0 -19.4,15.8 -19.4,35.3c0,19.5 8.7,35.3 19.4,35.3c0.4,0 0.8,0 1.2,-0.1l20.9,0l0,-70.5l-0.1,0z" class="st7" id="svg_8"/>
   <path stroke-miterlimit="10" stroke-linejoin="round" stroke-linecap="round" stroke-width="6" stroke="#4E5A7D" fill="none" d="m432.2,82.6l-20.2,0c-9.8,0 -17.8,15.8 -17.8,35.3c0,19.5 8,35.3 17.8,35.3c0.4,0 0.7,0 1.1,-0.1l19.2,0l0,-70.5l-0.1,0z" class="st3" id="svg_7"/>
   <ellipse fill="#E08484" ry="35.3" rx="16.9" cy="117.9" cx="432.7" class="st7" id="svg_6"/>
   <ellipse stroke-miterlimit="10" stroke-linejoin="round" stroke-linecap="round" stroke-width="6" stroke="#4E5A7D" fill="none" ry="35.3" rx="17.8" cy="117.9" cx="431.8" class="st3" id="svg_5"/>
   <path fill="#FFFFFF" d="m441.7,130.7l0,0c6.1,0 11,-4.9 11,-11l0,-3.5c0,-6.1 -4.9,-11 -11,-11l0,0c-5.6,0 -10.1,4.5 -10.1,10.1l0,5.4c0,5.5 4.5,10 10.1,10z" class="st0" id="svg_4"/>
   <path stroke-miterlimit="10" stroke-linejoin="round" stroke-linecap="round" stroke-width="6" stroke="#4E5A7D" fill="none" d="m441.7,130.7l0,0c6.1,0 11,-4.9 11,-11l0,-3.5c0,-6.1 -4.9,-11 -11,-11l0,0c-5.6,0 -10.1,4.5 -10.1,10.1l0,5.4c0,5.5 4.5,10 10.1,10z" class="st3" id="svg_3"/>
   <path stroke-miterlimit="10" stroke-linejoin="round" stroke-linecap="round" stroke-width="2" stroke="#4E5A7D" fill="none" d="m155.1,58.9l-3.8,0l0,5.9l2.8,0l-0.2,0c2.2,0 3.9,2.2 3.9,4.9s-1.8,4.9 -3.9,4.9c-1.6,0 -2.9,-1.1 -3.5,-2.8" class="st12" id="svg_2"/>
  </g>
 </g>
</svg>